<?xml version="1.0" standalone="no"?>
<svg viewBox="0 80 200 200" xmlns="http://www.w3.org/2000/svg">
  <path fill="#8ADBDB" d="M29.5,-54.2C35.1,-47.9,34.2,-33.6,42.4,-23.2C50.6,-12.8,67.8,-6.4,68.8,0.6C69.8,7.6,54.6,15.1,48.6,29.4C42.6,43.6,45.9,64.4,39.4,75.6C32.8,86.9,16.4,88.5,4.5,80.7C-7.4,73,-14.9,55.8,-21.3,44.5C-27.8,33.2,-33.2,27.8,-43.8,21.3C-54.5,14.9,-70.2,7.5,-71.2,-0.6C-72.2,-8.6,-58.4,-17.2,-49.9,-27.2C-41.4,-37.3,-38.1,-48.7,-30.6,-53.9C-23.2,-59.1,-11.6,-58,0.2,-58.3C12,-58.7,24,-60.5,29.5,-54.2Z" transform="translate(100 100)" />
</svg>
