<?xml version="1.0" standalone="no"?>
<svg viewBox="60 -50 200 200" xmlns="http://www.w3.org/2000/svg">
  <path fill="#8B4513" d="M20.4,-30.8C30.4,-20.8,45.2,-20.1,49.3,-14.4C53.4,-8.7,46.7,2.2,43.7,15C40.6,27.8,41.2,42.7,34.5,53.4C27.9,64.2,13.9,70.8,-0.5,71.5C-14.9,72.1,-29.8,66.8,-37.6,56.4C-45.4,46.1,-46.3,30.7,-53.8,15.6C-61.4,0.4,-75.7,-14.4,-75.5,-27.5C-75.3,-40.6,-60.6,-51.9,-45.6,-60.3C-30.6,-68.7,-15.3,-74.2,-5.1,-67.2C5.2,-60.2,10.4,-40.8,20.4,-30.8Z" transform="translate(100 100)" />
</svg>
